<svg width="24" height="24" viewBox="0 0 27 27" fill="none" xmlns="http://www.w3.org/2000/svg">
<path d="M24.2499 16.1167V21.7833C24.2499 23.242 23.2006 24.498 21.7539 24.69C18.9713 25.0593 16.1326 25.25 13.25 25.25C10.3674 25.25 7.5287 25.0593 4.74605 24.69C3.29939 24.498 2.25007 23.242 2.25007 21.7833V16.1167M24.2499 16.1167C24.5665 15.8415 24.8198 15.5011 24.9925 15.1188C25.1651 14.7366 25.2529 14.3214 25.2499 13.902V8.858C25.2499 7.41667 24.2259 6.17133 22.8006 5.958C21.2904 5.73189 19.7725 5.55978 18.25 5.442M24.2499 16.1167C23.9913 16.3367 23.6899 16.51 23.3526 16.6233C20.0942 17.7045 16.683 18.2537 13.25 18.25C9.71936 18.25 6.32338 17.678 3.1474 16.6233C2.81841 16.5139 2.5137 16.3418 2.25007 16.1167M2.25007 16.1167C1.93346 15.8415 1.68015 15.5011 1.50754 15.1188C1.33492 14.7366 1.24709 14.3214 1.25007 13.902V8.858C1.25007 7.41667 2.27407 6.17133 3.69939 5.958C5.20965 5.73189 6.72749 5.55978 8.25003 5.442M18.25 5.442V4.25C18.25 3.45435 17.9339 2.69129 17.3713 2.12868C16.8087 1.56607 16.0456 1.25 15.25 1.25H11.25C10.4544 1.25 9.69131 1.56607 9.12871 2.12868C8.5661 2.69129 8.25003 3.45435 8.25003 4.25V5.442M18.25 5.442C14.9216 5.18477 11.5784 5.18477 8.25003 5.442M13.25 14.25H13.2607V14.2607H13.25V14.25Z" stroke="currentColor" stroke-width="2.5" stroke-linecap="round" stroke-linejoin="round"/>
</svg>
