<svg width="44" height="44" viewBox="0 0 44 44" fill="none" xmlns="http://www.w3.org/2000/svg">
<path d="M9.75467 1V6.25058M34.2547 1V6.25058M1 37.7541V11.4942C1 10.1016 1.55312 8.76612 2.53769 7.78144C3.52226 6.79677 4.85761 6.24358 6.25 6.24358H37.75C39.1424 6.24358 40.4777 6.79677 41.4623 7.78144C42.4469 8.76612 43 10.1016 43 11.4942V37.7494M43 37.7494C43 39.142 42.4469 40.4775 41.4623 41.4621C40.4777 42.4468 39.1424 43 37.75 43H6.25C4.85761 43 3.52226 42.4468 2.53769 41.4621C1.55312 40.4775 1 39.142 1 37.7494V20.2475C1 18.8549 1.55312 17.5194 2.53769 16.5347C3.52226 15.5501 4.85761 14.9969 6.25 14.9969H37.75C39.1424 14.9969 40.4777 15.5501 41.4623 16.5347C42.4469 17.5194 43 18.8549 43 20.2475V37.7494ZM27.25 23.7479H32.5M11.5 28.9984H22M22.0047 23.7479H22.0163V23.7619H22.0047V23.7479ZM22.0023 34.249H22.0163V34.263H22.0023V34.249ZM16.7523 34.2514H16.764V34.2654H16.7547V34.2514H16.7523ZM11.5023 34.2514H11.514V34.263H11.5V34.2514H11.5023ZM27.2523 29.0078H27.264V29.0194H27.2523V29.0078ZM27.2523 34.2514H27.2663V34.2654H27.2523V34.2514ZM32.5023 29.0054H32.5163V29.0171H32.5047L32.5023 29.0054Z" stroke="#E1E0E0" stroke-opacity="0.75" stroke-width="2" stroke-linecap="round" stroke-linejoin="round"/>
</svg>
