<svg width="25" height="24" viewBox="0 0 28 27" fill="none" xmlns="http://www.w3.org/2000/svg">
<path d="M18.4375 12.7281C18.4375 12.8665 18.4924 12.9992 18.59 13.0971C18.6877 13.1949 18.8202 13.2499 18.9583 13.2499C19.0965 13.2499 19.2289 13.1949 19.3266 13.0971C19.4243 12.9992 19.4792 12.8665 19.4792 12.7281C19.4792 12.5898 19.4243 12.4571 19.3266 12.3592C19.2289 12.2614 19.0965 12.2064 18.9583 12.2064C18.8202 12.2064 18.6877 12.2614 18.59 12.3592C18.4924 12.4571 18.4375 12.5898 18.4375 12.7281ZM18.4375 12.7281H18.9583M13.2292 12.7281C13.2292 12.8665 13.284 12.9992 13.3817 13.0971C13.4794 13.1949 13.6119 13.2499 13.75 13.2499C13.8881 13.2499 14.0206 13.1949 14.1183 13.0971C14.216 12.9992 14.2708 12.8665 14.2708 12.7281C14.2708 12.5898 14.216 12.4571 14.1183 12.3592C14.0206 12.2614 13.8881 12.2064 13.75 12.2064C13.6119 12.2064 13.4794 12.2614 13.3817 12.3592C13.284 12.4571 13.2292 12.5898 13.2292 12.7281ZM13.2292 12.7281H13.75M8.02083 12.7281C8.02083 12.8665 8.07571 12.9992 8.17338 13.0971C8.27106 13.1949 8.40353 13.2499 8.54167 13.2499C8.6798 13.2499 8.81228 13.1949 8.90995 13.0971C9.00763 12.9992 9.0625 12.8665 9.0625 12.7281C9.0625 12.5898 9.00763 12.4571 8.90995 12.3592C8.81228 12.2614 8.6798 12.2064 8.54167 12.2064C8.40353 12.2064 8.27106 12.2614 8.17338 12.3592C8.07571 12.4571 8.02083 12.5898 8.02083 12.7281ZM8.02083 12.7281H8.54167M1.25 12.7281C1.25 19.0669 6.84722 24.2063 13.75 24.2063C14.9484 24.2078 16.1416 24.0501 17.2986 23.7374C18.9295 24.8864 20.919 25.4085 22.9028 25.208C23.1233 25.1867 23.343 25.1565 23.5611 25.1176C22.8766 24.3094 22.4091 23.3398 22.2028 22.3002C22.0778 21.6644 22.3875 21.0467 22.8514 20.5945C24.9583 18.541 26.25 15.7737 26.25 12.7281C26.25 6.38943 20.6528 1.25 13.75 1.25C6.84722 1.25 1.25 6.38943 1.25 12.7281Z" stroke="currentColor" stroke-width="2.5" stroke-linecap="round" stroke-linejoin="round"/>
</svg>
