<svg width="24" height="24" viewBox="0 0 24 24" fill="none" xmlns="http://www.w3.org/2000/svg">
<g clip-path="url(#clip0_1098_64)">
<path d="M1.38985 12.8649C1.31406 12.6299 1.31406 12.3758 1.38985 12.1407C2.91317 7.41133 7.23711 4 12.3332 4C17.427 4 21.7487 7.40793 23.2753 12.1351C23.3522 12.3697 23.3522 12.6235 23.2753 12.8593C21.7531 17.5887 17.4292 21 12.3332 21C7.23931 21 2.91647 17.5921 1.38985 12.8649Z" stroke="#272626" stroke-width="2.5" stroke-linecap="round" stroke-linejoin="round"/>
<path d="M16.333 12.5C16.333 13.4283 15.9643 14.3185 15.3079 14.9749C14.6515 15.6313 13.7613 16 12.833 16C11.9048 16 11.0145 15.6313 10.3581 14.9749C9.70176 14.3185 9.33301 13.4283 9.33301 12.5C9.33301 11.5717 9.70176 10.6815 10.3581 10.0251C11.0145 9.36875 11.9048 9 12.833 9C13.7613 9 14.6515 9.36875 15.3079 10.0251C15.9643 10.6815 16.333 11.5717 16.333 12.5Z" stroke="#272626" stroke-width="2.5" stroke-linecap="round" stroke-linejoin="round"/>
</g>
<defs>
<clipPath id="clip0_1098_64">
<rect width="24" height="24" fill="white"/>
</clipPath>
</defs>
</svg>
