<svg width="24" height="24" viewBox="0 0 24 24" fill="none" xmlns="http://www.w3.org/2000/svg">
<path d="M1.38727 12.3435C1.31492 12.1222 1.31492 11.8831 1.38727 11.6619C2.84135 7.21067 6.96875 4 11.8331 4C16.6954 4 20.8207 7.20747 22.278 11.6565C22.3514 11.8773 22.3514 12.1163 22.278 12.3381C20.8249 16.7893 16.6975 20 11.8331 20C6.97084 20 2.84449 16.7925 1.38727 12.3435Z" stroke="#272626" stroke-width="2.5" stroke-linecap="round" stroke-linejoin="round"/>
<path d="M14.333 12.5C14.333 13.163 14.0696 13.7989 13.6008 14.2678C13.1319 14.7366 12.496 15 11.833 15C11.17 15 10.5341 14.7366 10.0652 14.2678C9.5964 13.7989 9.33301 13.163 9.33301 12.5C9.33301 11.837 9.5964 11.2011 10.0652 10.7322C10.5341 10.2634 11.17 10 11.833 10C12.496 10 13.1319 10.2634 13.6008 10.7322C14.0696 11.2011 14.333 11.837 14.333 12.5Z" stroke="#272626" stroke-width="2.5" stroke-linecap="round" stroke-linejoin="round"/>
</svg>
