<svg width="24" height="24" viewBox="0 0 27 27" fill="none" xmlns="http://www.w3.org/2000/svg">
<path d="M25.1048 15.1111L23.5915 13.5978C23.3637 13.3696 23.1741 13.1063 23.0301 12.8178L21.5901 9.93781C21.5509 9.85964 21.4937 9.79191 21.4232 9.74018C21.3527 9.68845 21.271 9.65421 21.1846 9.64028C21.0983 9.62635 21.0099 9.63313 20.9267 9.66005C20.8435 9.68697 20.7679 9.73328 20.7061 9.79514C20.567 9.9341 20.3933 10.0333 20.2029 10.0826C20.0126 10.1318 19.8125 10.1292 19.6235 10.0751L17.9261 9.59114C17.6546 9.5148 17.3647 9.53769 17.1085 9.65572C16.8522 9.77375 16.6465 9.9792 16.528 10.2352C16.4095 10.4912 16.3862 10.7811 16.4621 11.0528C16.5379 11.3245 16.7081 11.5602 16.9421 11.7178L17.7248 12.2378C18.5115 12.7645 18.6235 13.8778 17.9541 14.5471L17.6875 14.8138C17.4048 15.0965 17.2475 15.4778 17.2475 15.8751V16.4218C17.2475 16.9671 17.1008 17.5005 16.8208 17.9658L15.0675 20.8871C14.8175 21.304 14.4638 21.649 14.0409 21.8885C13.618 22.128 13.1402 22.2539 12.6541 22.2538C12.2811 22.2538 11.9233 22.1056 11.6595 21.8418C11.3957 21.578 11.2475 21.2202 11.2475 20.8471V19.2845C11.2475 18.0578 10.5008 16.9551 9.36213 16.4991L8.4888 16.1511C7.85338 15.8968 7.32405 15.4328 6.98863 14.8362C6.65322 14.2396 6.5319 13.5462 6.6448 12.8711L6.65413 12.8151C6.71611 12.4442 6.84728 12.0883 7.0408 11.7658L7.1608 11.5658C7.47922 11.0356 7.95376 10.6167 8.51943 10.3665C9.08511 10.1164 9.71428 10.0472 10.3208 10.1685L11.8915 10.4831C12.2611 10.5569 12.6449 10.4887 12.9666 10.2923C13.2882 10.0959 13.5242 9.78561 13.6275 9.42314L13.9048 8.44981C14.0009 8.11355 13.9764 7.75429 13.8357 7.43414C13.695 7.11398 13.4468 6.85306 13.1341 6.69648L12.2475 6.25381L12.1261 6.37514C11.8476 6.65372 11.5168 6.8747 11.1529 7.02546C10.7889 7.17622 10.3988 7.25381 10.0048 7.25381H9.76479C9.43279 7.25381 9.11546 7.38714 8.88213 7.61914C8.66828 7.83493 8.38274 7.9648 8.07956 7.98416C7.77638 8.00353 7.47663 7.91105 7.23707 7.72423C6.9975 7.53741 6.83477 7.26923 6.77967 6.97047C6.72458 6.67171 6.78096 6.36312 6.93813 6.10314L8.81946 2.96581C9.00698 2.65396 9.13619 2.31059 9.2008 1.95248M25.1048 15.1111C25.4278 13.054 25.2098 10.9482 24.4725 9.00078C23.7351 7.05335 22.5037 5.33132 20.8992 4.00396C19.2948 2.67659 17.3725 1.78959 15.3214 1.43014C13.2703 1.07069 11.161 1.25116 9.2008 1.95381C7.20656 2.66866 5.43711 3.89871 4.07226 5.51895C2.70742 7.1392 1.79583 9.09189 1.43014 11.1786C1.06445 13.2653 1.25769 15.4116 1.99022 17.3994C2.72276 19.3872 3.96847 21.1456 5.60078 22.496C7.23308 23.8464 9.19378 24.7407 11.2836 25.0878C13.3735 25.4349 15.518 25.2226 17.4992 24.4725C19.4804 23.7223 21.2278 22.461 22.5636 20.8168C23.8995 19.1726 24.7762 17.204 25.1048 15.1111Z" stroke="currentColor" stroke-width="2.5" stroke-linecap="round" stroke-linejoin="round"/>
</svg>
