<svg width="44" height="40" viewBox="0 0 44 40" fill="none" xmlns="http://www.w3.org/2000/svg">
<path d="M15.5385 2.65217H11.0412C10.0051 2.65237 8.99635 2.99219 8.16293 3.62178C7.3295 4.25137 6.71531 5.13758 6.41046 6.15038L1.21538 23.4189C1.0731 23.8906 1.0005 24.3814 1 24.875V34.0435C1 35.358 1.51058 36.6187 2.41941 37.5483C3.32824 38.4778 4.56087 39 5.84615 39H38.1538C39.4391 39 40.6718 38.4778 41.5806 37.5483C42.4894 36.6187 43 35.358 43 34.0435V24.875C43 24.3816 42.9268 23.8903 42.7846 23.4189L37.5938 6.15038C37.289 5.13758 36.6748 4.25137 35.8414 3.62178C35.008 2.99219 33.9992 2.65237 32.9631 2.65217H28.4615M1 24.1304H9.31385C10.2137 24.1307 11.0958 24.3872 11.8611 24.8712C12.6265 25.3552 13.245 26.0476 13.6474 26.8708L14.1988 27.9987C14.6013 28.8223 15.2201 29.5149 15.9859 29.999C16.7517 30.483 17.6342 30.7393 18.5345 30.7391H25.4655C26.3658 30.7393 27.2483 30.483 28.0141 29.999C28.7799 29.5149 29.3987 28.8223 29.8012 27.9987L30.3526 26.8708C30.7551 26.0473 31.374 25.3546 32.1398 24.8706C32.9056 24.3866 33.7881 24.1303 34.6883 24.1304H43M22 1V19.1739M22 19.1739L15.5385 12.5652M22 19.1739L28.4615 12.5652" stroke="#E1E0E0" stroke-opacity="0.75" stroke-width="2" stroke-linecap="round" stroke-linejoin="round"/>
</svg>
