<svg width="36" height="36" viewBox="0 0 36 36" fill="none" xmlns="http://www.w3.org/2000/svg">
<path d="M0 17.5442V18.5145C0.253125 27.8239 7.74844 35.2981 16.6711 36.0012H19.4133C28.3852 35.2911 35.7539 27.7536 36 18.5005V17.5442C35.7539 8.12937 28.132 0.493431 18.9422 0.0223368C9.05625 -0.476882 0.274219 7.45437 0 17.5442Z" fill="url(#paint0_radial_1098_356)"/>
<path d="M18.0842 9.04297C20.9529 9.04297 21.2904 9.05 22.4295 9.10625C23.4771 9.14844 24.0396 9.33125 24.4193 9.47891C24.9186 9.67578 25.2771 9.91484 25.6498 10.2945C26.0225 10.6742 26.2615 11.0398 26.4584 11.5461C26.6061 11.9328 26.7748 12.5094 26.8311 13.5781C26.8873 14.7313 26.8943 15.0758 26.8943 17.9937C26.8943 20.9117 26.8873 21.2563 26.8311 22.4094C26.7889 23.4711 26.6131 24.0547 26.4584 24.4414C26.2615 24.9477 26.0295 25.3133 25.6498 25.693C25.2771 26.0727 24.9186 26.3117 24.4193 26.5086C24.0396 26.6633 23.4701 26.8391 22.4295 26.8812C21.2975 26.9375 20.9529 26.9445 18.0842 26.9445C15.2154 26.9445 14.8779 26.9375 13.7389 26.8812C12.6912 26.8391 12.1287 26.6562 11.749 26.5086C11.2498 26.3117 10.8912 26.0727 10.5186 25.693C10.1459 25.3133 9.90684 24.9477 9.70996 24.4414C9.56231 24.0547 9.39355 23.4781 9.33731 22.4094C9.28105 21.2563 9.27402 20.9117 9.27402 17.9937C9.27402 15.0758 9.28105 14.7313 9.33731 13.5781C9.37949 12.5164 9.55527 11.9328 9.70996 11.5461C9.90684 11.0398 10.1389 10.6742 10.5186 10.2945C10.8912 9.91484 11.2498 9.67578 11.749 9.47891C12.1287 9.32422 12.6982 9.14844 13.7389 9.10625C14.8709 9.05703 15.2154 9.04297 18.0842 9.04297ZM18.0842 7.07422C15.1662 7.07422 14.8006 7.08828 13.6615 7.14453C12.5225 7.20078 11.735 7.38359 11.0529 7.65078C10.3428 7.93203 9.74512 8.30469 9.15449 8.91641C8.55684 9.52813 8.19121 10.1328 7.91699 10.857C7.6498 11.5461 7.46699 12.3477 7.41777 13.5078C7.36152 14.668 7.35449 15.0406 7.35449 18.0078C7.35449 20.975 7.36855 21.3477 7.41777 22.5078C7.47402 23.668 7.65684 24.4625 7.91699 25.1586C8.19121 25.8758 8.55684 26.4875 9.15449 27.0992C9.75215 27.7109 10.3498 28.0836 11.0529 28.3648C11.735 28.6391 12.5225 28.8219 13.6615 28.8711C14.8076 28.9273 15.1732 28.9414 18.0842 28.9414C20.9951 28.9414 21.3678 28.9273 22.5068 28.8711C23.6459 28.8148 24.4334 28.632 25.1154 28.3648C25.8256 28.0836 26.4232 27.7109 27.0139 27.0992C27.6115 26.4875 27.9771 25.8828 28.2514 25.1586C28.5186 24.4695 28.7014 23.668 28.7506 22.5078C28.8068 21.3477 28.8139 20.975 28.8139 18.0078C28.8139 15.0406 28.7998 14.668 28.7506 13.5078C28.6943 12.3477 28.5115 11.5531 28.2514 10.857C27.9771 10.1398 27.6115 9.52813 27.0139 8.91641C26.4162 8.30469 25.8186 7.93203 25.1154 7.65078C24.4334 7.37656 23.6459 7.19375 22.5068 7.14453C21.3678 7.08828 20.9951 7.07422 18.0842 7.07422Z" fill="#E1E0E0"/>
<path d="M18.0838 12.3906C15.0322 12.3906 12.5713 14.9008 12.5713 18.0016C12.5713 21.1023 15.0393 23.6125 18.0838 23.6125C21.1283 23.6125 23.5963 21.1023 23.5963 18.0016C23.5963 14.9008 21.1283 12.3906 18.0838 12.3906ZM18.0838 21.6437C16.108 21.6437 14.5049 20.0195 14.5049 18.0016C14.5049 15.9836 16.108 14.3594 18.0838 14.3594C20.0596 14.3594 21.6627 15.9836 21.6627 18.0016C21.6627 20.0195 20.0596 21.6437 18.0838 21.6437Z" fill="#E1E0E0"/>
<path d="M23.815 13.473C24.5257 13.473 25.1018 12.8875 25.1018 12.1652C25.1018 11.4429 24.5257 10.8574 23.815 10.8574C23.1044 10.8574 22.5283 11.4429 22.5283 12.1652C22.5283 12.8875 23.1044 13.473 23.815 13.473Z" fill="#E1E0E0"/>
<defs>
<radialGradient id="paint0_radial_1098_356" cx="0" cy="0" r="1" gradientUnits="userSpaceOnUse" gradientTransform="translate(0.657832 32.7004) rotate(-86.9998) scale(52.0464 44.2394)">
<stop stop-color="#FED576"/>
<stop offset="0.2634" stop-color="#F47133"/>
<stop offset="0.6091" stop-color="#BC3081"/>
<stop offset="1" stop-color="#4C63D2"/>
</radialGradient>
</defs>
</svg>
