<svg width="36" height="36" viewBox="0 0 36 36" fill="none" xmlns="http://www.w3.org/2000/svg">
<path d="M0 18C0 8.0589 8.0589 0 18 0C27.9411 0 36 8.0589 36 18C36 27.9411 27.9411 36 18 36C8.0589 36 0 27.9411 0 18Z" fill="#0077B5"/>
<path fill-rule="evenodd" clip-rule="evenodd" d="M12.9895 11.117C12.9895 12.2938 12.1037 13.2355 10.6813 13.2355H10.6552C9.28577 13.2355 8.40039 12.2938 8.40039 11.117C8.40039 9.9153 9.31269 9 10.7081 9C12.1037 9 12.963 9.9153 12.9895 11.117ZM12.7208 14.9083V27.1647H8.64159V14.9083H12.7208ZM27.4318 27.1647L27.4319 20.1373C27.4319 16.3727 25.4195 14.6206 22.7352 14.6206C20.5694 14.6206 19.5998 15.8101 19.0584 16.6447V14.9087H14.9787C15.0325 16.0588 14.9787 27.165 14.9787 27.165H19.0584V20.32C19.0584 19.9537 19.0849 19.5884 19.1927 19.3261C19.4876 18.5943 20.1588 17.8366 21.2858 17.8366C22.7624 17.8366 23.3528 18.9605 23.3528 20.6075V27.1647H27.4318Z" fill="#E1E0E0"/>
</svg>
