<svg width="24" height="24" viewBox="0 0 24 24" fill="none" xmlns="http://www.w3.org/2000/svg">
<path d="M12 1C18.0751 1 23 5.92488 23 12C23 18.0751 18.0751 23 12 23C5.92488 23 1 18.0751 1 12C1 5.92488 5.92488 1 12 1Z" stroke="#E1E0E0" stroke-width="2"/>
<path fill-rule="evenodd" clip-rule="evenodd" d="M8.65901 7.41135C8.65901 8.1959 8.06846 8.82365 7.12021 8.82365H7.10281C6.18986 8.82365 5.59961 8.1959 5.59961 7.41135C5.59961 6.6102 6.20781 6 7.13811 6C8.06846 6 8.64136 6.6102 8.65901 7.41135ZM8.47986 9.9389V18.1098H5.76041V9.9389H8.47986ZM18.2872 18.1098L18.2873 13.4249C18.2873 10.9152 16.9457 9.74705 15.1562 9.74705C13.7123 9.74705 13.0659 10.5401 12.705 11.0964V9.93915H9.98516C10.021 10.7058 9.98516 18.11 9.98516 18.11H12.705V13.5467C12.705 13.3025 12.7226 13.0589 12.7945 12.8841C12.9911 12.3962 13.4386 11.8911 14.1899 11.8911C15.1743 11.8911 15.5679 12.6403 15.5679 13.7383V18.1098H18.2872Z" fill="#E1E0E0"/>
</svg>
