<svg viewBox="0 0 42 42" fill="none" xmlns="http://www.w3.org/2000/svg">
<path d="M26.25 18.375C26.25 19.7674 25.6969 21.1027 24.7123 22.0873C23.7277 23.0719 22.3924 23.625 21 23.625C19.6076 23.625 18.2723 23.0719 17.2877 22.0873C16.3031 21.1027 15.75 19.7674 15.75 18.375C15.75 16.9826 16.3031 15.6473 17.2877 14.6627C18.2723 13.6781 19.6076 13.125 21 13.125C22.3924 13.125 23.7277 13.6781 24.7123 14.6627C25.6969 15.6473 26.25 16.9826 26.25 18.375Z" stroke="currentColor" stroke-width="2" stroke-linecap="round" stroke-linejoin="round"/>
<path d="M34.125 18.375C34.125 30.8735 21 38.0625 21 38.0625C21 38.0625 7.875 30.8735 7.875 18.375C7.875 14.894 9.25781 11.5556 11.7192 9.09422C14.1806 6.63281 17.519 5.25 21 5.25C24.481 5.25 27.8194 6.63281 30.2808 9.09422C32.7422 11.5556 34.125 14.894 34.125 18.375Z" stroke="currentColor" stroke-width="2" stroke-linecap="round" stroke-linejoin="round"/>
</svg>
