<svg width="44" height="44" viewBox="0 0 44 44" fill="none" xmlns="http://www.w3.org/2000/svg">
<path d="M24.1968 43.09C22.9833 44.3033 21.0163 44.3033 19.8028 43.09L0.910136 24.1968C-0.303378 22.9833 -0.303378 21.0163 0.910136 19.803L19.803 0.909977C21.0165 -0.303326 22.9835 -0.303326 24.197 0.909977L43.0899 19.8032C44.3034 21.0165 44.3034 22.9835 43.0899 24.197L24.1968 43.09Z" fill="#e1e0e0"/>
<path d="M34.1256 26.1457C34.1247 26.1191 34.1212 26.0916 34.1126 26.0624C33.8156 25.0336 33.5188 24.0049 33.2218 22.9764C32.6839 21.1128 32.1458 19.2498 31.6079 17.3866C31.3767 16.5845 31.145 15.7826 30.9131 14.9803H31.1413C31.3492 14.9803 31.5177 14.8089 31.5177 14.6008C31.5177 14.3927 31.3492 14.2217 31.1413 14.2217H23.3104C23.1549 13.7971 22.8029 13.4689 22.3642 13.3589V0.0453201C22.2397 0.01716 22.1123 0 21.9814 0C21.8848 0 21.7902 0.01078 21.6965 0.0264001V13.3664C21.2629 13.4827 20.9226 13.8119 20.7741 14.2219H12.9489C12.8449 14.2219 12.7509 14.2688 12.6829 14.3366C12.6145 14.4045 12.5725 14.5038 12.5725 14.608C12.5725 14.8155 12.7415 14.9801 12.9489 14.9801H13.1729C12.897 15.9362 12.6207 16.8921 12.3448 17.8486C11.8069 19.7118 11.2692 21.575 10.7309 23.4384C10.4788 24.3129 10.226 25.1872 9.97387 26.0621C9.96573 26.0914 9.96221 26.1189 9.96089 26.1455H8.13996C8.68138 28.6331 10.8946 30.5004 13.5434 30.5004C16.1921 30.5004 18.4049 28.6331 18.9463 26.1455H17.1254C17.1245 26.1189 17.121 26.0914 17.1124 26.0621C16.8154 25.0334 16.5186 24.0047 16.2216 22.9762C15.6837 21.1126 15.1456 19.2496 14.6077 17.3864C14.376 16.5843 14.1446 15.7824 13.913 14.9801H20.7325C20.8808 15.6121 21.4794 16.0625 22.1315 16.0211C22.7378 15.9824 23.2134 15.5419 23.3535 14.9801H30.1735C29.8976 15.9362 29.6213 16.8921 29.3454 17.8486C28.8075 19.7118 28.2694 21.575 27.732 23.4384C27.4794 24.3129 27.2271 25.1872 26.9741 26.0621C26.9659 26.0914 26.9624 26.1189 26.9615 26.1455H25.1402C25.6816 28.6331 27.8948 30.5004 30.5435 30.5004C33.1923 30.5004 35.4055 28.6331 35.9469 26.1455L34.1256 26.1457ZM14.1268 18.018C14.6647 19.8812 15.2028 21.7444 15.7407 23.6078C15.9847 24.4535 16.2289 25.2994 16.4729 26.1455H10.6127C10.9016 25.1452 11.1902 24.1453 11.4791 23.1454C12.017 21.2822 12.5551 19.4188 13.093 17.5556C13.2431 17.0357 13.3929 16.5161 13.5429 15.9962C13.7374 16.6701 13.9325 17.344 14.1268 18.018ZM22.1315 15.3842C21.7623 15.4234 21.4413 15.1895 21.3465 14.8355C21.2416 14.4459 21.5326 14.0145 21.9326 13.961C22.3708 13.9025 22.749 14.2338 22.7593 14.6714C22.751 15.0236 22.4931 15.3459 22.1315 15.3842ZM27.6134 26.1457C27.9025 25.1454 28.1909 24.1455 28.4797 23.1456C29.0176 21.2824 29.5553 19.419 30.0932 17.5558C30.2437 17.036 30.3935 16.5159 30.5435 15.996C30.7382 16.6701 30.9329 17.344 31.1274 18.018C31.6649 19.8812 32.203 21.7444 32.7409 23.6078C32.9853 24.4535 33.23 25.2994 33.4735 26.1455L27.6134 26.1457Z" fill="#272626"/>
</svg>
