<svg width="21" height="20" viewBox="0 0 21 20" fill="none" xmlns="http://www.w3.org/2000/svg">
<path d="M6 6H15M6 9H10.5M0.75 10.51C0.75 12.11 1.873 13.504 3.457 13.737C4.586 13.903 5.727 14.03 6.88 14.116C7.23 14.142 7.55 14.326 7.745 14.617L10.5 18.75L13.255 14.617C13.3516 14.4733 13.4798 14.3534 13.6297 14.2666C13.7795 14.1798 13.9472 14.1283 14.12 14.116C15.2652 14.0305 16.4069 13.9041 17.543 13.737C19.127 13.504 20.25 12.111 20.25 10.509V4.491C20.25 2.889 19.127 1.496 17.543 1.263C15.211 0.920716 12.857 0.74926 10.5 0.750002C8.108 0.750002 5.756 0.925002 3.457 1.263C1.873 1.496 0.75 2.89 0.75 4.491V10.509V10.51Z" stroke="#E1E0E0" stroke-opacity="0.5" stroke-width="1.5" stroke-linecap="round" stroke-linejoin="round"/>
</svg>
