<svg width="48" height="48" viewBox="0 0 48 48" fill="none" xmlns="http://www.w3.org/2000/svg">
<path d="M21 3H16.5C15.3065 3 14.1619 3.47411 13.318 4.31802C12.4741 5.16193 12 6.30653 12 7.5V40.5C12 41.6935 12.4741 42.8381 13.318 43.682C14.1619 44.5259 15.3065 45 16.5 45H31.5C32.6935 45 33.8381 44.5259 34.682 43.682C35.5259 42.8381 36 41.6935 36 40.5V7.5C36 6.30653 35.5259 5.16193 34.682 4.31802C33.8381 3.47411 32.6935 3 31.5 3H27M21 3V6H27V3M21 3H27M21 40.5H27" stroke="#E1E0E0" stroke-opacity="0.75" stroke-width="2" stroke-linecap="round" stroke-linejoin="round"/>
</svg>
