<svg viewBox="0 0 42 42" fill="none" xmlns="http://www.w3.org/2000/svg">
<path d="M24.9375 17.0625V9.1875M24.9375 17.0625H32.8125M24.9375 17.0625L35.4375 6.5625M30.1875 38.0625C15.6905 38.0625 3.9375 26.3095 3.9375 11.8125V7.875C3.9375 6.83071 4.35234 5.82919 5.09077 5.09077C5.82919 4.35234 6.83071 3.9375 7.875 3.9375H10.276C11.179 3.9375 11.9665 4.55175 12.1852 5.4285L14.1208 13.1688C14.3133 13.9388 14.0262 14.7472 13.391 15.2215L11.1283 16.919C10.8044 17.1535 10.5648 17.4861 10.445 17.8676C10.3252 18.249 10.3316 18.659 10.4633 19.0365C11.5165 21.9015 13.18 24.5032 15.3384 26.6616C17.4968 28.82 20.0985 30.4835 22.9635 31.5367C23.7352 31.8202 24.5875 31.5298 25.081 30.8718L26.7785 28.609C27.0108 28.2988 27.3296 28.0641 27.6947 27.9343C28.0599 27.8045 28.4553 27.7853 28.8313 27.8792L36.5715 29.8148C37.4465 30.0335 38.0625 30.821 38.0625 31.724V34.125C38.0625 35.1693 37.6477 36.1708 36.9092 36.9092C36.1708 37.6477 35.1693 38.0625 34.125 38.0625H30.1875Z" stroke="currentColor" stroke-width="2" stroke-linecap="round" stroke-linejoin="round"/>
</svg>
