<svg width="24" height="24" viewBox="0 0 24 24" fill="none" xmlns="http://www.w3.org/2000/svg">
<g clip-path="url(#clip0_1098_57)">
<path d="M16.3662 15.0523C16.5904 16.0012 16.597 16.9884 16.3855 17.9402C16.174 18.892 15.7498 19.7835 15.1448 20.5481C14.5398 21.3127 13.7696 21.9304 12.8919 22.355C12.0143 22.7796 11.0519 23.0001 10.0769 23V17.8308M16.3662 15.0523C18.4229 13.5541 20.0962 11.5905 21.2491 9.32209C22.402 7.05364 23.002 4.54463 23 2C20.4556 1.99817 17.9468 2.59822 15.6785 3.75115C13.4103 4.90409 11.4469 6.5772 9.94877 8.63385M16.3662 15.0523C14.4944 16.4214 12.3496 17.3692 10.0769 17.8308M10.0769 17.8308C9.966 17.8534 9.854 17.8749 9.742 17.8954C8.765 17.1207 7.88041 16.2361 7.10569 15.2591C7.12604 15.1469 7.1465 15.0348 7.16923 14.9231M9.94877 8.63385C8.99985 8.40941 8.01244 8.40265 7.06053 8.61408C6.10863 8.8255 5.21692 9.24962 4.45223 9.85466C3.68754 10.4597 3.06971 11.23 2.64502 12.1077C2.22034 12.9855 1.99982 13.948 2 14.9231H7.16923M9.94877 8.63385C8.57987 10.5053 7.63096 12.6508 7.16923 14.9231M4.758 17.4969C4.04958 18.0237 3.49878 18.7343 3.16526 19.5517C2.83173 20.3691 2.72819 21.2621 2.86585 22.1342C3.73797 22.2717 4.6311 22.168 5.4485 21.8343C6.2659 21.5005 6.97641 20.9495 7.50308 20.2409M17.3462 9.26923C17.3462 9.69766 17.176 10.1085 16.873 10.4115C16.5701 10.7144 16.1592 10.8846 15.7308 10.8846C15.3023 10.8846 14.8915 10.7144 14.5885 10.4115C14.2856 10.1085 14.1154 9.69766 14.1154 9.26923C14.1154 8.84081 14.2856 8.42993 14.5885 8.12698C14.8915 7.82404 15.3023 7.65385 15.7308 7.65385C16.1592 7.65385 16.5701 7.82404 16.873 8.12698C17.176 8.42993 17.3462 8.84081 17.3462 9.26923Z" stroke="#272626" stroke-width="2.5" stroke-linecap="round" stroke-linejoin="round"/>
</g>
<defs>
<clipPath id="clip0_1098_57">
<rect width="24" height="24" fill="white"/>
</clipPath>
</defs>
</svg>
