<svg viewBox="0 0 29 27" fill="none" xmlns="http://www.w3.org/2000/svg">
<path d="M14.25 1.25V24.25M14.25 24.25C12.2873 24.25 10.4073 24.6033 8.67 25.25M14.25 24.25C16.2127 24.25 18.0927 24.6033 19.83 25.25M23.25 3.87667C20.2683 3.45815 17.2609 3.24875 14.25 3.25C11.1953 3.25 8.19 3.46333 5.25 3.87667M23.25 3.87667C24.5967 4.06733 25.93 4.29933 27.25 4.57M23.25 3.87667L26.7433 18.178C26.906 18.8433 26.602 19.5487 25.958 19.7807C25.0892 20.0925 24.173 20.2513 23.25 20.25C22.327 20.2513 21.4108 20.0925 20.542 19.7807C19.898 19.5487 19.594 18.8433 19.7553 18.178L23.25 3.878V3.87667ZM5.25 3.87667C3.90333 4.06733 2.57 4.29933 1.25 4.57M5.25 3.87667L8.74333 18.178C8.906 18.8433 8.602 19.5487 7.958 19.7807C7.08924 20.0924 6.17301 20.2512 5.25 20.25C4.32699 20.2512 3.41076 20.0924 2.542 19.7807C1.898 19.5487 1.594 18.8433 1.75533 18.178L5.25 3.878V3.87667Z" stroke="currentColor" stroke-width="currentStrokeWidth" stroke-linecap="round" stroke-linejoin="round"/>
</svg>
