<svg width="24" height="22" viewBox="0 0 27 25" fill="none" xmlns="http://www.w3.org/2000/svg">
<path d="M1.25 1.25H2.96535C3.59653 1.25 4.14728 1.66922 4.31064 2.27056L4.78465 4.02689M4.78465 4.02689C11.679 3.83609 18.5667 4.59296 25.25 6.27578C24.2302 9.27511 23.0186 12.1889 21.6312 15H7.74752M4.78465 4.02689L7.74752 15M7.74752 15C6.76281 15 5.81843 15.3863 5.12213 16.0739C4.42583 16.7616 4.03465 17.6942 4.03465 18.6667H23.5272M5.89109 22.3333C5.89109 22.5764 5.79329 22.8096 5.61922 22.9815C5.44515 23.1534 5.20905 23.25 4.96287 23.25C4.71669 23.25 4.4806 23.1534 4.30652 22.9815C4.13245 22.8096 4.03465 22.5764 4.03465 22.3333C4.03465 22.0902 4.13245 21.8571 4.30652 21.6852C4.4806 21.5132 4.71669 21.4167 4.96287 21.4167C5.20905 21.4167 5.44515 21.5132 5.61922 21.6852C5.79329 21.8571 5.89109 22.0902 5.89109 22.3333ZM21.6708 22.3333C21.6708 22.5764 21.573 22.8096 21.3989 22.9815C21.2248 23.1534 20.9888 23.25 20.7426 23.25C20.4964 23.25 20.2603 23.1534 20.0862 22.9815C19.9121 22.8096 19.8144 22.5764 19.8144 22.3333C19.8144 22.0902 19.9121 21.8571 20.0862 21.6852C20.2603 21.5132 20.4964 21.4167 20.7426 21.4167C20.9888 21.4167 21.2248 21.5132 21.3989 21.6852C21.573 21.8571 21.6708 22.0902 21.6708 22.3333Z" stroke="currentColor" stroke-width="2.5" stroke-linecap="round" stroke-linejoin="round"/>
</svg>
