<svg width="24" height="21" viewBox="0 0 27 24" fill="none" xmlns="http://www.w3.org/2000/svg">
<path d="M19.4753 15.5799C20.0511 15.191 20.7264 14.9713 21.4231 14.9462C22.1199 14.9211 22.8096 15.0916 23.4124 15.438C24.0153 15.7844 24.5066 16.2925 24.8297 16.9037C25.1528 17.5148 25.2943 18.2039 25.2379 18.8912C23.7612 19.4017 22.1926 19.6003 20.6335 19.4743C20.6287 18.0946 20.227 16.7434 19.4753 15.5811C18.8081 14.5461 17.8877 13.6942 16.7994 13.1043C15.711 12.5145 14.4898 12.2057 13.2487 12.2065C12.0079 12.2059 10.7869 12.5148 9.69879 13.1046C8.61064 13.6945 7.69047 14.5462 7.02337 15.5811M20.6323 19.4731L20.6335 19.5109C20.6335 19.7848 20.6187 20.055 20.588 20.3216C18.3545 21.5891 15.8237 22.2541 13.2487 22.25C10.5779 22.25 8.07078 21.5488 5.9095 20.3216C5.87786 20.0399 5.86265 19.7566 5.86396 19.4731M5.86396 19.4731C4.30532 19.6037 2.73763 19.4058 1.26202 18.8924C1.20583 18.2053 1.34743 17.5164 1.67043 16.9055C1.99343 16.2946 2.48465 15.7866 3.08729 15.4402C3.68993 15.0939 4.37937 14.9233 5.07591 14.9482C5.77244 14.9732 6.44762 15.1926 7.02337 15.5811M5.86396 19.4731C5.86838 18.0935 6.27212 16.7436 7.02337 15.5811M16.9411 4.90217C16.9411 5.87079 16.5521 6.79973 15.8596 7.48465C15.1672 8.16956 14.228 8.55434 13.2487 8.55434C12.2695 8.55434 11.3303 8.16956 10.6378 7.48465C9.94537 6.79973 9.55635 5.87079 9.55635 4.90217C9.55635 3.93355 9.94537 3.00461 10.6378 2.3197C11.3303 1.63478 12.2695 1.25 13.2487 1.25C14.228 1.25 15.1672 1.63478 15.8596 2.3197C16.5521 3.00461 16.9411 3.93355 16.9411 4.90217ZM24.3259 8.55434C24.3259 8.91405 24.2543 9.27023 24.1151 9.60256C23.9759 9.93489 23.7719 10.2368 23.5148 10.4912C23.2576 10.7455 22.9524 10.9473 22.6164 11.085C22.2804 11.2226 21.9203 11.2935 21.5566 11.2935C21.1929 11.2935 20.8328 11.2226 20.4968 11.085C20.1609 10.9473 19.8556 10.7455 19.5984 10.4912C19.3413 10.2368 19.1373 9.93489 18.9981 9.60256C18.8589 9.27023 18.7873 8.91405 18.7873 8.55434C18.7873 7.82788 19.0791 7.13117 19.5984 6.61749C20.1178 6.1038 20.8221 5.81521 21.5566 5.81521C22.2911 5.81521 22.9954 6.1038 23.5148 6.61749C24.0341 7.13117 24.3259 7.82788 24.3259 8.55434ZM7.71016 8.55434C7.71016 8.91405 7.63853 9.27023 7.49936 9.60256C7.36019 9.93489 7.1562 10.2368 6.89905 10.4912C6.6419 10.7455 6.33661 10.9473 6.00063 11.085C5.66464 11.2226 5.30453 11.2935 4.94087 11.2935C4.5772 11.2935 4.21709 11.2226 3.8811 11.085C3.54512 10.9473 3.23983 10.7455 2.98268 10.4912C2.72553 10.2368 2.52155 9.93489 2.38238 9.60256C2.24321 9.27023 2.17158 8.91405 2.17158 8.55434C2.17158 7.82788 2.46334 7.13117 2.98268 6.61749C3.50202 6.1038 4.2064 5.81521 4.94087 5.81521C5.67533 5.81521 6.37971 6.1038 6.89905 6.61749C7.41839 7.13117 7.71016 7.82788 7.71016 8.55434Z" stroke="currentColor" stroke-width="2.5" stroke-linecap="round" stroke-linejoin="round"/>
</svg>
