<svg width="24" height="24" viewBox="0 0 24 24" fill="none" xmlns="http://www.w3.org/2000/svg">
<path fill-rule="evenodd" clip-rule="evenodd" d="M12.0503 23.7938H12.0453C10.0454 23.7931 8.08019 23.2937 6.33475 22.3462L0 24L1.69528 17.8373C0.649527 16.0338 0.0993091 13.9879 0.100146 11.8918C0.102826 5.33476 5.46349 0 12.0501 0C15.2468 0.001375 18.2472 1.23992 20.5033 3.48784C22.7595 5.73567 24.0013 8.72359 24 11.9013C23.9974 18.4569 18.6388 23.7911 12.0503 23.7938ZM6.62832 20.1933L6.99098 20.4074C8.51594 21.3081 10.264 21.7846 12.0463 21.7853H12.0503C17.5246 21.7853 21.9802 17.3509 21.9823 11.9006C21.9834 9.25934 20.9513 6.77592 19.0761 4.90751C17.2009 3.03909 14.7071 2.00959 12.0541 2.00867C6.57557 2.00867 2.11998 6.44259 2.11781 11.8926C2.11705 13.7603 2.64215 15.5793 3.63633 17.153L3.87254 17.527L2.86915 21.1746L6.62832 20.1933ZM17.6616 14.4617C17.8698 14.5618 18.0105 14.6295 18.0705 14.7293C18.1451 14.8532 18.1451 15.4482 17.8964 16.1423C17.6475 16.8365 16.4546 17.47 15.881 17.5553C15.3666 17.6318 14.7155 17.6638 14.0003 17.4375C13.5666 17.3006 13.0105 17.1178 12.2981 16.8116C9.49898 15.6087 7.60726 12.9087 7.24971 12.3983C7.22468 12.3626 7.20718 12.3376 7.19738 12.3246L7.19504 12.3214C7.03703 12.1116 5.97821 10.7057 5.97821 9.25067C5.97821 7.88184 6.65378 7.16442 6.96477 6.83417C6.98612 6.81159 7.00571 6.79076 7.02321 6.77167C7.29694 6.47417 7.6204 6.39976 7.81944 6.39976C8.01848 6.39976 8.21776 6.40159 8.39176 6.41034C8.4132 6.41142 8.43556 6.41126 8.45858 6.41109C8.63258 6.41009 8.84954 6.40884 9.06356 6.92042C9.14587 7.11726 9.26637 7.40917 9.39339 7.71701C9.65029 8.33951 9.93423 9.02734 9.98414 9.12684C10.0588 9.27559 10.1086 9.44909 10.009 9.64742C9.99411 9.67717 9.98029 9.70526 9.96706 9.73209C9.89228 9.88401 9.83735 9.99567 9.71041 10.1432C9.66059 10.2011 9.60901 10.2636 9.55743 10.3261C9.45469 10.4506 9.35203 10.5751 9.2626 10.6638C9.11305 10.8119 8.95747 10.9727 9.13164 11.2702C9.30581 11.5677 9.9051 12.5408 10.7927 13.3288C11.7469 14.1758 12.5762 14.5338 12.9966 14.7152C13.0786 14.7507 13.1451 14.7793 13.1939 14.8037C13.4924 14.9524 13.6665 14.9275 13.8408 14.7293C14.0149 14.5309 14.5872 13.8615 14.7861 13.5641C14.9852 13.2668 15.1843 13.3163 15.4579 13.4153C15.7317 13.5147 17.1997 14.2334 17.4983 14.3822C17.5566 14.4112 17.6111 14.4374 17.6616 14.4617Z" fill="#272626"/>
</svg>
